<svg width="375" height="199" viewBox="0 0 375 199" fill="none" xmlns="http://www.w3.org/2000/svg">
<rect width="375" height="199" fill="#3D417F"/>
<path opacity="0.117647" fill-rule="evenodd" clip-rule="evenodd" d="M345.5 83C356.822 83 366 73.8218 366 62.5C366 51.1782 356.822 42 345.5 42C334.178 42 325 51.1782 325 62.5C325 73.8218 334.178 83 345.5 83Z" fill="#D8D8D8"/>
<path opacity="0.117647" fill-rule="evenodd" clip-rule="evenodd" d="M384 189C418.794 189 447 160.794 447 126C447 91.2061 418.794 63 384 63C349.206 63 321 91.2061 321 126C321 160.794 349.206 189 384 189Z" fill="#D8D8D8"/>
<path opacity="0.117647" fill-rule="evenodd" clip-rule="evenodd" d="M79.5 49C101.315 49 119 31.3152 119 9.5C119 -12.3152 101.315 -30 79.5 -30C57.6848 -30 40 -12.3152 40 9.5C40 31.3152 57.6848 49 79.5 49Z" fill="#D8D8D8"/>
<path opacity="0.117647" fill-rule="evenodd" clip-rule="evenodd" d="M22.5 149C69.1681 149 107 111.168 107 64.5C107 17.8319 69.1681 -20 22.5 -20C-24.1681 -20 -62 17.8319 -62 64.5C-62 111.168 -24.1681 149 22.5 149Z" fill="#D8D8D8"/>
</svg>
