<svg width="86" height="86" viewBox="0 0 86 86" fill="none" xmlns="http://www.w3.org/2000/svg">
<path fill-rule="evenodd" clip-rule="evenodd" d="M43 85C66.196 85 85 66.196 85 43C85 19.804 66.196 1 43 1C19.804 1 1 19.804 1 43C1 66.196 19.804 85 43 85Z" fill="white" stroke="#979797"/>
<path fill-rule="evenodd" clip-rule="evenodd" d="M1 43C1 19.8043 19.8051 1 43 1C66.1966 1 85 19.8043 85 43C85 66.1956 66.1974 85 43 85C19.8051 85 1 66.1956 1 43ZM16.802 46.0819L35.2954 64.5746L69.198 30.6713L63.034 24.5073L35.2954 52.2466L22.9659 39.9179L16.802 46.0819Z" fill="#6AC259"/>
</svg>
