<svg width="86" height="86" viewBox="0 0 86 86" fill="none" xmlns="http://www.w3.org/2000/svg">
<g opacity="0.751321">
<path d="M14.5 30C13.6721 30 13 30.6716 13 31.4997C13 32.3278 13.6721 33 14.5 33C15.3279 33 16 32.3278 16 31.4997C16 30.6716 15.3279 30 14.5 30Z" fill="white"/>
<path fill-rule="evenodd" clip-rule="evenodd" d="M62.3033 50.4272C61.989 50.1122 61.5613 49.9351 61.1157 49.9351C61.1145 49.9353 61.11 49.9353 61.1025 49.9354C61.006 49.9361 60.4151 49.9402 59.9281 50.4272L58.7412 51.6141L54.8818 47.7554C63.3984 35.8172 62.1032 19.349 51.615 8.86143C39.8007 -2.95282 20.6771 -2.95479 8.86146 8.86143C-2.95284 20.675 -2.9548 39.7992 8.86146 51.6148C19.3235 62.0774 35.7851 63.4198 47.7549 54.8816L51.6143 58.741L50.4274 59.9279C49.7719 60.5834 49.7712 61.6476 50.4274 62.3038L71.6624 83.5367C74.9437 86.82 80.2551 86.822 83.537 83.5374C86.8203 80.2567 86.8216 74.9447 83.537 71.6628L62.3033 50.4272ZM53.9895 56.3658L50.3932 52.7696C50.8112 52.3949 51.22 52.0104 51.615 51.6148C52.0106 51.2198 52.3951 50.811 52.7697 50.3937L56.366 53.9899L53.9895 56.3658ZM11.2367 11.2366C0.733308 21.7393 0.734621 38.7382 11.2367 49.2396C21.595 59.5985 38.5894 59.8912 49.2398 49.2396C59.7713 38.7094 59.7182 21.7143 49.2398 11.2366C38.7371 0.733306 21.738 0.734618 11.2367 11.2366ZM61.1157 53.9899L65.8655 58.7403L58.7405 65.8652L53.9902 61.1155L61.1157 53.9899ZM74.0382 81.1622C76.0079 83.1332 79.1935 83.1326 81.1618 81.1622C83.1342 79.1918 83.1322 76.0063 81.1625 74.0386L68.2407 61.1155L61.1157 68.2404L74.0382 81.1622Z" fill="white"/>
<path fill-rule="evenodd" clip-rule="evenodd" d="M13.874 13.8843C23.0622 4.7024 37.9412 4.70764 47.1255 13.8856C56.2921 23.0459 56.2914 37.9513 47.1242 47.1128C37.934 56.296 23.0635 56.2954 13.874 47.1128C4.70868 37.9513 4.70868 23.0452 13.874 13.8843ZM16.2489 44.7395C24.127 52.6115 36.8731 52.6095 44.7492 44.7389C52.6069 36.8866 52.6076 24.1106 44.7505 16.2589C36.8757 8.38892 24.1211 8.39089 16.2489 16.257C8.39316 24.1099 8.39316 36.8866 16.2489 44.7395Z" fill="white"/>
<path d="M30.2884 13C25.7137 13 21.4159 14.7994 18.1865 18.0663C16.3143 19.9589 14.9363 22.195 14.0912 24.7136C13.7877 25.618 14.2664 26.6008 15.1617 26.9077C16.0583 27.2153 17.0291 26.7286 17.3326 25.8255C18.0073 23.8146 19.1091 22.0273 20.6068 20.5125C23.1904 17.9 26.6284 16.4609 30.2884 16.4609C31.2338 16.4609 32 15.6862 32 14.7304C32 13.7746 31.2338 13 30.2884 13Z" fill="white"/>
</g>
</svg>
