<svg width="24" height="53" viewBox="0 0 24 53" fill="none" xmlns="http://www.w3.org/2000/svg">
<path d="M11.0073 51.782C11.5939 52.367 12.5437 52.3658 13.1287 51.7792L22.6618 42.2205C23.2468 41.6339 23.2455 40.6842 22.659 40.0992C22.0724 39.5142 21.1227 39.5154 20.5377 40.102L12.0637 48.5986L3.56711 40.1247C2.98054 39.5397 2.03079 39.541 1.44579 40.1276C0.860788 40.7141 0.86206 41.6639 1.44863 42.2489L11.0073 51.782ZM10.5 1.00201L10.5033 3.48801L13.5033 3.48399L13.5 0.997991L10.5 1.00201ZM10.51 8.46L10.5166 13.432L13.5166 13.428L13.51 8.45599L10.51 8.46ZM10.5233 18.404L10.53 23.376L13.53 23.372L13.5233 18.4L10.5233 18.404ZM10.5366 28.348L10.5433 33.32L13.5433 33.316L13.5366 28.344L10.5366 28.348ZM10.5499 38.292L10.5566 43.264L13.5566 43.26L13.5499 38.288L10.5499 38.292ZM10.5633 48.236L10.5666 50.722L13.5666 50.7179L13.5633 48.232L10.5633 48.236Z" fill="white"/>
</svg>
