<svg width="72" height="86" viewBox="0 0 72 86" fill="none" xmlns="http://www.w3.org/2000/svg">
<g id="Group 3">
<g id="Rectangle 3.1" filter="url(#filter0_d)">
<rect x="8" y="6" width="56" height="69.3523" rx="6" fill="#F9F9F9"/>
</g>
<g id="qrcode">
<path id="Shape" fill-rule="evenodd" clip-rule="evenodd" d="M33.7153 46.3316V47.8568H35.2352V49.3811H32.189V44.8127H33.7132V43.2885H35.2352V40.239H33.7132V43.2885H32.189V38.7158L27.6197 38.7158V37.1916L32.189 37.1916V34.1432H33.7132V35.6663H35.2352V38.7147H36.7594V35.6674H36.7615V35.6663H38.2836V34.1421H36.7594V29.5705H35.2352V26.5242H33.7132V28.0484H32.189V25H36.7594V28.0484H38.2836V25H39.8077V29.5662H38.2836V32.6157H39.8077V38.7105H41.3319V37.1863H42.8561V40.2358H38.2857V43.2853L39.811 43.2853V44.8095H38.2846V43.2853L36.7605 43.2853V44.8095H35.2374V46.3316H33.7153ZM36.7615 35.6663V34.1432H35.2385V35.6674H36.7594V35.6663H36.7615ZM32.1912 37.1916V38.7158L33.7132 38.7158V37.1916L32.1912 37.1916ZM51.999 25.0011V35.6674H41.333V25.0011H51.999ZM20.0024 35.6664H30.6684V25.0012H20.0024V35.6664ZM26.0978 38.7147V37.1905H23.0484V40.239H24.5726V38.7147H26.0978ZM29.1439 41.7632L27.623 41.7632V40.239H24.5736V43.2885H23.0494V44.8127H30.6692V43.2885H29.145V41.7632L30.668 41.7632V40.239H29.1439V41.7632ZM48.9527 55.4769H47.4307V53.9526H48.9527V55.4769ZM51.9999 55.4769H50.4747V53.9526H51.9999V55.4769ZM32.1933 57H35.2395V55.4801H36.7615V52.4306H38.2857V53.9526H39.811V57H41.3351V53.9516H39.812V52.4274H38.2868V50.9063L41.3361 50.9063V53.9558H42.8603V55.4801H44.3803V57H45.9055V55.4758H44.3845V52.4306H50.4779V50.9063H45.9076V47.8568L47.4285 47.8568V49.3811H50.4747L50.4747 50.9053H51.9999V49.3811L50.4747 49.3811V47.8568L47.4317 47.8568V44.8095H45.9054V47.8568H44.3802V46.3316H42.8572V44.8095H41.333V46.3316H42.856V49.3811H38.2857V50.9063L36.7615 50.9063V50.9053V49.3811H35.2384V50.9063H32.1923V53.9558H35.2384V55.4758H32.1933V57ZM44.3845 55.4758H44.3803V55.4801H44.3845V55.4758ZM39.812 53.9516V53.9526H39.811V53.9516H39.812ZM38.2868 52.4274V52.4306H38.2857V52.4274H38.2868ZM35.2384 55.4758H35.2395V55.4801H35.2384V55.4758ZM29.1439 26.5253H21.5241V34.1432H29.1439V26.5253ZM27.6188 53.9526H23.0484V49.3811H27.6188V53.9526ZM23.0494 28.0495H27.6198V32.619H23.0494V28.0495ZM42.8572 26.5253H50.4748V34.1432H42.8572V26.5253ZM20 46.3316H30.667V56.9979H20V46.3316ZM29.1451 55.4769H21.5253V47.8568H29.1451V55.4769ZM21.5252 37.1916H20V44.8116H21.5252V37.1916ZM35.2395 31.0969H32.1933V29.5705H35.2395V31.0969ZM44.3814 43.2874H47.4318V44.8116H48.9549V40.2411H47.4318V37.1916H45.9055V41.7632H41.3373V43.2885H42.8615V44.8127H44.3856V43.2885H44.3814V43.2874ZM44.3813 28.0495H48.9506V32.619H44.3813V28.0495ZM36.7616 47.8568H39.8121V46.3316H38.2858V44.8095H36.7605V47.8568H36.7616ZM48.9506 38.7147H52V37.1905H48.9506V38.7147ZM50.4747 41.7632H51.9999V40.239H50.4747V41.7632Z" fill="black"/>
</g>
<g id="Combined Shape">
<mask id="path-3-inside-1" fill="white">
<path fill-rule="evenodd" clip-rule="evenodd" d="M14 18H20.9639V21.5H16.0576V27H14V18ZM14 53.25V63H20.9639V59.75H16.0576V53.25H14ZM56.2591 53.25V59.75H51.0358V63H58V53.25H56.2591ZM58 27V18H51.0358V21.5H56.2591V27H58Z"/>
</mask>
<path fill-rule="evenodd" clip-rule="evenodd" d="M14 18H20.9639V21.5H16.0576V27H14V18ZM14 53.25V63H20.9639V59.75H16.0576V53.25H14ZM56.2591 53.25V59.75H51.0358V63H58V53.25H56.2591ZM58 27V18H51.0358V21.5H56.2591V27H58Z" fill="#D8D8D8"/>
<path d="M20.9639 18H21.9639V17H20.9639V18ZM14 18V17H13V18H14ZM20.9639 21.5V22.5H21.9639V21.5H20.9639ZM16.0576 21.5V20.5H15.0576V21.5H16.0576ZM16.0576 27V28H17.0576V27H16.0576ZM14 27H13V28H14V27ZM14 53.25V52.25H13V53.25H14ZM14 63H13V64H14V63ZM20.9639 63V64H21.9639V63H20.9639ZM20.9639 59.75H21.9639V58.75H20.9639V59.75ZM16.0576 59.75H15.0576V60.75H16.0576V59.75ZM16.0576 53.25H17.0576V52.25H16.0576V53.25ZM56.2591 59.75V60.75H57.2591V59.75H56.2591ZM56.2591 53.25V52.25H55.2591V53.25H56.2591ZM51.0358 59.75V58.75H50.0358V59.75H51.0358ZM51.0358 63H50.0358V64H51.0358V63ZM58 63V64H59V63H58ZM58 53.25H59V52.25H58V53.25ZM58 18H59V17H58V18ZM58 27V28H59V27H58ZM51.0358 18V17H50.0358V18H51.0358ZM51.0358 21.5H50.0358V22.5H51.0358V21.5ZM56.2591 21.5H57.2591V20.5H56.2591V21.5ZM56.2591 27H55.2591V28H56.2591V27ZM20.9639 17H14V19H20.9639V17ZM21.9639 21.5V18H19.9639V21.5H21.9639ZM16.0576 22.5H20.9639V20.5H16.0576V22.5ZM17.0576 27V21.5H15.0576V27H17.0576ZM14 28H16.0576V26H14V28ZM13 18V27H15V18H13ZM13 53.25V63H15V53.25H13ZM14 64H20.9639V62H14V64ZM21.9639 63V59.75H19.9639V63H21.9639ZM20.9639 58.75H16.0576V60.75H20.9639V58.75ZM17.0576 59.75V53.25H15.0576V59.75H17.0576ZM16.0576 52.25H14V54.25H16.0576V52.25ZM57.2591 59.75V53.25H55.2591V59.75H57.2591ZM51.0358 60.75H56.2591V58.75H51.0358V60.75ZM52.0358 63V59.75H50.0358V63H52.0358ZM58 62H51.0358V64H58V62ZM57 53.25V63H59V53.25H57ZM58 52.25H56.2591V54.25H58V52.25ZM57 18V27H59V18H57ZM51.0358 19H58V17H51.0358V19ZM52.0358 21.5V18H50.0358V21.5H52.0358ZM56.2591 20.5H51.0358V22.5H56.2591V20.5ZM57.2591 27V21.5H55.2591V27H57.2591ZM56.2591 28H58V26H56.2591V28Z" fill="#979797" mask="url(#path-3-inside-1)"/>
</g>
<line id="Line" x1="15" y1="40.5" x2="58" y2="40.5" stroke="#FF0000"/>
</g>
<defs>
<filter id="filter0_d" x="0" y="0" width="72" height="85.3523" filterUnits="userSpaceOnUse" color-interpolation-filters="sRGB">
<feFlood flood-opacity="0" result="BackgroundImageFix"/>
<feColorMatrix in="SourceAlpha" type="matrix" values="0 0 0 0 0 0 0 0 0 0 0 0 0 0 0 0 0 0 127 0"/>
<feOffset dy="2"/>
<feGaussianBlur stdDeviation="4"/>
<feColorMatrix type="matrix" values="0 0 0 0 0 0 0 0 0 0 0 0 0 0 0 0 0 0 0.33 0"/>
<feBlend mode="normal" in2="BackgroundImageFix" result="effect1_dropShadow"/>
<feBlend mode="normal" in="SourceGraphic" in2="effect1_dropShadow" result="shape"/>
</filter>
</defs>
</svg>
