<svg width="72" height="87" viewBox="0 0 72 87" fill="none" xmlns="http://www.w3.org/2000/svg">
<g filter="url(#filter0_d)">
<rect x="8" y="6.7936" width="56" height="69.3523" rx="6" fill="#F9F9F9"/>
</g>
<rect x="13.1816" y="68.573" width="45.8363" height="5.38078" rx="2.69039" fill="#E99C14"/>
<rect x="8" y="6.59432" width="56" height="31.2883" rx="6" fill="#EAEAEA"/>
<g opacity="0.07">
<path fill-rule="evenodd" clip-rule="evenodd" d="M35.0754 26.9869V28.0033H36.0882V29.019H34.0583V25.9748H35.0739V24.9591H36.0882V22.927H35.0739V24.9591H34.0583V21.912H35.0739V20.8963H34.0598V20.8963H34.0583V18.8649H35.0739V19.8799H36.0882V21.9113H37.1038V19.8806H37.1055V19.8799H38.1195V18.8642H37.1038V15.8179L36.0913 15.8179V16.835H34.0614V15.8179L36.0882 15.8179V13.7879H35.0739V14.8036H34.0583V12.7722H37.1038V14.8036H38.1195V12.7722H39.1351V15.815H38.1195V17.8471H39.1351V21.9084H40.1508V20.8928H41.1665V22.9248H38.1209V24.9569H37.1045V25.9726H36.0896V26.9869H35.0754ZM37.1055 19.8799V18.8649H36.0906V19.8806H37.1038V19.8799H37.1055ZM34.0583 20.8963H31.0135V21.912H34.0598V20.8963H34.0583V20.8963ZM47.2592 12.7729V19.8806H40.1517V12.7729H47.2592ZM25.9373 19.8803H33.0448V12.7733H25.9373V19.8803ZM29.9992 21.9113V20.8956H27.9672V22.927H28.9828V21.9113H29.9992ZM32.0291 23.9427H31.0156V22.927H28.9836V24.9591H27.9679V25.9748H33.0455V24.9591H32.0299V23.9427H33.0447V22.927H32.0291V23.9427ZM45.2294 33.081H44.2151V32.0654H45.2294V33.081ZM47.26 33.081H46.2436V32.0654H47.26V33.081ZM34.0614 34.096H36.0913V33.0832H37.1054V31.0511H38.1209V32.0653H39.1377V34.096H40.1533V32.0647H39.138V31.0489H38.1218V30.0354H37.1054V30.0347V29.019H36.0905V30.0354H34.0606V32.0675H36.0905V33.0803H34.0614V34.096ZM39.138 32.0647V32.0653H39.1377V32.0647H39.138ZM38.1218 31.0489V31.0511H38.1209V31.0489H38.1218ZM36.0905 33.0803H36.0913V33.0832H36.0905V33.0803ZM43.1984 33.0803V34.096H42.1821V33.0832H42.185V33.0803H43.1984ZM42.185 33.0803H42.1821V33.0832H41.1693V32.0675H40.1537V30.0354H38.1209V29.019H41.1665V26.9869H42.1821V28.0033H43.1985H43.1999V30.0354H46.2455V31.0511H42.185V33.0803ZM32.0292 13.7886H26.9516V18.8649H32.0292V13.7886ZM31.0127 32.0653H27.9672V29.019H31.0127V32.0653ZM27.9679 14.8043H31.0135V17.8492H27.9679V14.8043ZM41.1673 13.7886H46.2434V18.8649H41.1673V13.7886ZM25.936 26.9869H33.0442V34.0946H25.936V26.9869ZM32.0299 33.081H26.9524V28.0033H32.0299V33.081ZM26.9524 20.8963H25.936V25.974H26.9524V20.8963ZM40.1517 26.9869V25.9726H41.1674V26.9869H40.1517ZM42.1829 24.9584H44.2156V25.974H45.2305V22.9284H44.2156V20.8963H43.1985V23.9427H40.1544V24.9591H41.1701V25.9748H42.1857V24.9591H42.1829V24.9584ZM43.1984 28.0033H44.2155V25.9726H43.1984V28.0033ZM46.2435 29.019V28.0033H44.2136V29.019H46.2435ZM42.1828 14.8043H45.2277V17.8492H42.1828V14.8043ZM37.1053 28.0033H39.1381V26.9869H38.121V25.9726H39.1376V24.957H38.1206V25.9726H37.1046V28.0033H37.1053ZM38.1206 25.9726V25.9726H38.121V25.9726H38.1206ZM45.228 21.9113H47.26V20.8956H45.228V21.9113ZM47.26 30.0347H46.2436V29.019H47.26V30.0347ZM46.2436 23.9427H47.26V22.927H46.2436V23.9427Z" fill="black"/>
</g>
<rect x="20.356" y="5" width="32.6833" height="3.98577" rx="1.99288" fill="#6AC259"/>
<line x1="17.2524" y1="42.9435" x2="56.6959" y2="42.9435" stroke="#BAB8B8" stroke-width="3"/>
<line x1="17.2524" y1="47.3261" x2="56.6959" y2="47.3261" stroke="#BAB8B8" stroke-width="3"/>
<line x1="17.2524" y1="52.1957" x2="56.6959" y2="52.1957" stroke="#BAB8B8" stroke-width="3"/>
<line x1="17.2524" y1="56.5783" x2="56.6959" y2="56.5783" stroke="#BAB8B8" stroke-width="3"/>
<defs>
<filter id="filter0_d" x="0" y="0.793602" width="72" height="85.3523" filterUnits="userSpaceOnUse" color-interpolation-filters="sRGB">
<feFlood flood-opacity="0" result="BackgroundImageFix"/>
<feColorMatrix in="SourceAlpha" type="matrix" values="0 0 0 0 0 0 0 0 0 0 0 0 0 0 0 0 0 0 127 0"/>
<feOffset dy="2"/>
<feGaussianBlur stdDeviation="4"/>
<feColorMatrix type="matrix" values="0 0 0 0 0 0 0 0 0 0 0 0 0 0 0 0 0 0 0.33 0"/>
<feBlend mode="normal" in2="BackgroundImageFix" result="effect1_dropShadow"/>
<feBlend mode="normal" in="SourceGraphic" in2="effect1_dropShadow" result="shape"/>
</filter>
</defs>
</svg>
