<svg width="278" height="180" viewBox="0 0 278 180" fill="none" xmlns="http://www.w3.org/2000/svg">
<path fill-rule="evenodd" clip-rule="evenodd" d="M128.576 110.993V117.284H134.845V123.572H122.28V104.727H128.567V98.4399H134.845V85.8607H128.567V98.4399H122.28V79.5777H103.432V73.2903H122.28V60.7155H128.567V66.9985H134.845V79.5733H141.133V67.0029H141.141V66.9985H147.42V60.7111H141.133V41.8534H134.863V48.1496H122.297V41.8534H134.845V29.2874H128.567V35.5748H122.28V23H141.133V35.5748H147.42V23H153.707V41.8357H147.42V54.4149H153.707V79.5557H159.994V73.2683H166.281V85.8475H147.429V98.4267H153.72V104.714H147.429V110.993H153.725V117.284H141.141H141.137V104.714H147.424V98.4267H141.137V104.714H134.854V110.993H128.576ZM141.141 66.9985V60.7155H134.859V67.0029H141.133V66.9985H141.141ZM122.289 73.2903V79.5777H128.567V73.2903H122.289ZM72.0088 66.9985H116.006V23.0044H72.0088V66.9985ZM97.1531 79.5733V73.2859H84.5744V85.8607H90.8616V79.5733H97.1531ZM109.719 92.1481H103.445V85.8607H90.866V98.4399H84.5788V104.727H116.01V98.4399H109.723V92.1481H116.006V85.8607H109.719V92.1481ZM191.43 148.717H185.152V142.43H191.43V148.717ZM204 148.717H197.708V142.43H204V148.717ZM122.297 155H134.863V148.73H141.141V136.151H147.429V142.43H153.72V155H160.007V142.425H153.725V136.138H147.433V129.864L160.012 129.864V142.443H166.299V148.73H172.568V155H178.86V148.713H172.586V136.151H197.722V129.864H178.869V117.284H185.143V123.572H197.708L197.708 129.859H204V123.572H197.708V117.284H185.156L185.156 104.723H191.439V85.8695H185.156V73.2903H178.86V92.1481H160.016V98.4399H166.303V104.727H172.591V98.4399H172.573V98.4355H185.156L185.156 104.714H178.86V117.284H172.568V110.993L166.286 110.993V104.714H159.999V110.993L166.281 110.993V123.572H147.429V129.864L141.141 129.864V129.859V123.572H134.859V129.864H122.293V142.443H134.859V148.713H122.297V155ZM172.586 148.713H172.568V148.73H172.586V148.713ZM153.725 142.425V142.43H153.72V142.425H153.725ZM147.433 136.138V136.151H147.429V136.138H147.433ZM134.859 148.713H134.863V148.73H134.859V148.713ZM109.719 29.2918H78.2872V60.7155H109.719V29.2918ZM103.427 142.43H84.5744V123.572H103.427V142.43ZM84.5788 35.5792H103.432V54.4282H84.5788V35.5792ZM203.996 23.0044V67.0029H159.999V23.0044H203.996ZM166.286 29.2918H197.708V60.7155H166.286V29.2918ZM72 110.993H116.001V154.991H72V110.993ZM109.723 148.717H78.2916V117.284H109.723V148.717ZM78.2916 73.2903H72V104.723H78.2916V73.2903ZM172.573 35.5792H191.421V54.4282H172.573V35.5792ZM191.421 79.5733H204V73.2859H191.421V79.5733ZM197.708 92.1481H204V85.8607H197.708V92.1481Z" fill="black"/>
<circle cx="139.5" cy="78.5" r="33.5" fill="white"/>
<mask id="path-3-inside-1" fill="white">
<path fill-rule="evenodd" clip-rule="evenodd" d="M0 0H44V14H13V36H0V0ZM0 141V180H44V167H13V141H0ZM267 141V167H234V180H278V141H267ZM278 36V0H234V14H267V36H278Z"/>
</mask>
<path fill-rule="evenodd" clip-rule="evenodd" d="M0 0H44V14H13V36H0V0ZM0 141V180H44V167H13V141H0ZM267 141V167H234V180H278V141H267ZM278 36V0H234V14H267V36H278Z" fill="#D8D8D8"/>
<path d="M44 0H45V-1H44V0ZM0 0V-1H-1V0H0ZM44 14V15H45V14H44ZM13 14V13H12V14H13ZM13 36V37H14V36H13ZM0 36H-1V37H0V36ZM0 141V140H-1V141H0ZM0 180H-1V181H0V180ZM44 180V181H45V180H44ZM44 167H45V166H44V167ZM13 167H12V168H13V167ZM13 141H14V140H13V141ZM267 167V168H268V167H267ZM267 141V140H266V141H267ZM234 167V166H233V167H234ZM234 180H233V181H234V180ZM278 180V181H279V180H278ZM278 141H279V140H278V141ZM278 0H279V-1H278V0ZM278 36V37H279V36H278ZM234 0V-1H233V0H234ZM234 14H233V15H234V14ZM267 14H268V13H267V14ZM267 36H266V37H267V36ZM44 -1H0V1H44V-1ZM45 14V0H43V14H45ZM13 15H44V13H13V15ZM14 36V14H12V36H14ZM0 37H13V35H0V37ZM-1 0V36H1V0H-1ZM-1 141V180H1V141H-1ZM0 181H44V179H0V181ZM45 180V167H43V180H45ZM44 166H13V168H44V166ZM14 167V141H12V167H14ZM13 140H0V142H13V140ZM268 167V141H266V167H268ZM234 168H267V166H234V168ZM235 180V167H233V180H235ZM278 179H234V181H278V179ZM277 141V180H279V141H277ZM278 140H267V142H278V140ZM277 0V36H279V0H277ZM234 1H278V-1H234V1ZM235 14V0H233V14H235ZM267 13H234V15H267V13ZM268 36V14H266V36H268ZM267 37H278V35H267V37Z" fill="#979797" mask="url(#path-3-inside-1)"/>
<path fill-rule="evenodd" clip-rule="evenodd" d="M139.5 43.9167C120.41 43.9167 104.917 59.41 104.917 78.5C104.917 97.59 120.41 113.083 139.5 113.083C158.59 113.083 174.083 97.59 174.083 78.5C174.083 59.41 158.59 43.9167 139.5 43.9167V43.9167ZM132.583 95.7916L115.292 78.4999L120.168 73.6237L132.583 86.0045L158.832 59.7558L163.708 64.6666L132.583 95.7916V95.7916Z" fill="#3BD11E"/>
</svg>
