<svg width="35" height="33" viewBox="0 0 35 33" fill="none" xmlns="http://www.w3.org/2000/svg">
<path d="M32.2842 13.9405L34.8566 10.0836C34.8566 10.0836 35.1822 0.495948 29.0468 0H17.4325H17.4272H5.81295C-0.322329 0.495948 0.00320216 10.0836 0.00320216 10.0836L2.58735 13.9034L0 20.8869L2.90436 32.4141L31.9554 32.4183L34.8608 20.89L32.2842 13.9405Z" fill="#A85D5D"/>
<g opacity="0.2">
<path d="M0.04017 10.146C0.216721 7.48609 1.14169 1.87343 5.80902 1.49679H17.4158H17.4211H29.028C33.6954 1.8735 34.6213 7.48824 34.7969 10.1471L34.834 10.0925C34.834 10.0925 35.1594 0.558713 29.028 0.0655518H17.4211H17.4158H5.80902C-0.322328 0.558713 0.00299424 10.0925 0.00299424 10.0925L0.04017 10.146Z" fill="white"/>
</g>
<path d="M34.8608 20.8721L0 20.869L2.58735 13.9888L32.2842 14.0252L34.8608 20.8721Z" fill="#723F3F"/>
<path d="M32.2879 13.9888L2.5847 13.9527L0 10.2141H34.8608L32.2879 13.9888Z" fill="#8C4C4C"/>
<path d="M18.2076 26.7557C18.2076 27.185 17.8592 27.5334 17.4311 27.5334C17.0018 27.5334 16.6533 27.185 16.6533 26.7557C16.6533 26.3263 17.0018 25.9791 17.4311 25.9791C17.8592 25.9791 18.2076 26.3264 18.2076 26.7557Z" fill="black"/>
<path d="M11.5975 19.2014C10.76 19.2014 9.95241 19.0168 9.38064 18.6957C8.94427 18.4504 8.68506 18.1463 8.68506 17.8818C8.68506 17.3441 9.82021 16.5621 11.5975 16.5621C12.4349 16.5621 13.2436 16.7467 13.8154 17.0689C14.2507 17.3131 14.511 17.6172 14.511 17.8818C14.511 18.4205 13.3758 19.2014 11.5975 19.2014Z" fill="#FFCE54"/>
<path d="M17.4237 19.2014C16.5862 19.2014 15.7786 19.0168 15.2057 18.6957C14.7704 18.4504 14.5112 18.1463 14.5112 17.8818C14.5112 17.3441 15.6453 16.5621 17.4237 16.5621C18.2611 16.5621 19.0687 16.7467 19.6416 17.0689C20.0769 17.3131 20.3361 17.6172 20.3361 17.8818C20.3361 18.4205 19.2022 19.2014 17.4237 19.2014Z" fill="#FFCE54"/>
<path d="M23.2495 19.2014C22.412 19.2014 21.6034 19.0168 21.0316 18.6957C20.5963 18.4504 20.3359 18.1463 20.3359 17.8818C20.3359 17.3441 21.4711 16.5621 23.2495 16.5621C24.087 16.5621 24.8945 16.7467 25.4664 17.0689C25.9016 17.3131 26.1619 17.6172 26.1619 17.8818C26.1619 18.4205 25.0269 19.2014 23.2495 19.2014Z" fill="#FFCE54"/>
<path d="M14.5112 17.1532C13.6737 17.1532 12.8651 16.9697 12.2932 16.6475C11.858 16.4021 11.5977 16.0992 11.5977 15.8346C11.5977 15.2959 12.7327 14.5138 14.5112 14.5138C15.3476 14.5138 16.1562 14.6994 16.7281 15.0205C17.1634 15.2648 17.4237 15.57 17.4237 15.8346C17.4237 16.3722 16.2885 17.1532 14.5112 17.1532Z" fill="#FFCE54"/>
<path d="M20.3362 17.1532C19.4998 17.1532 18.6912 16.9697 18.1194 16.6475C17.6841 16.4021 17.4238 16.0992 17.4238 15.8346C17.4238 15.2959 18.559 14.5138 20.3362 14.5138C21.1737 14.5138 21.9823 14.6994 22.5542 15.0205C22.9895 15.2648 23.2498 15.57 23.2498 15.8346C23.2498 16.3722 22.1148 17.1532 20.3362 17.1532Z" fill="#FFCE54"/>
<path d="M17.4237 15.1058C16.5862 15.1058 15.7786 14.9212 15.2057 14.5991C14.7704 14.3548 14.5112 14.0507 14.5112 13.7862C14.5112 13.2485 15.6453 12.4666 17.4237 12.4666C18.2611 12.4666 19.0687 12.6511 19.6416 12.9733C20.0769 13.2176 20.3361 13.5216 20.3361 13.7862C20.3361 14.3238 19.2022 15.1058 17.4237 15.1058Z" fill="#FFCE54"/>
<path d="M6.22612 21.2552H11.1805C11.4642 21.0418 11.6189 20.8103 11.6189 20.6119C11.6189 20.3473 11.3586 20.0443 10.9233 19.799C10.3515 19.4768 9.54284 19.2933 8.70543 19.2933C6.92805 19.2933 5.79297 20.0743 5.79297 20.612C5.79297 20.8189 5.95086 21.0482 6.22612 21.2552Z" fill="#FFCE54"/>
<path d="M12.0523 21.2552H17.0067C17.2904 21.0418 17.4441 20.8103 17.4441 20.6119C17.4441 20.3473 17.1848 20.0443 16.7496 19.799C16.1777 19.4768 15.3691 19.2933 14.5316 19.2933C12.7532 19.2933 11.6191 20.0743 11.6191 20.612C11.6192 20.8189 11.7771 21.0482 12.0523 21.2552Z" fill="#FFCE54"/>
<rect x="14.2109" y="21.0945" width="6.6613" height="6.6613" fill="#CCD1D9"/>
<path d="M17.8093 21.0278H22.7708C23.0551 20.7966 23.21 20.5459 23.21 20.3309C23.21 20.0443 22.9503 19.716 22.5145 19.4502C21.9407 19.1013 21.132 18.9025 20.2933 18.9025C18.5124 18.9025 17.3755 19.7485 17.3755 20.331C17.3755 20.5551 17.5347 20.8035 17.8093 21.0278Z" fill="#FFCE54"/>
<path d="M23.6437 21.0278H28.6053C28.8895 20.7966 29.0444 20.5459 29.0444 20.3309C29.0444 20.0443 28.7838 19.716 28.3478 19.4502C27.7752 19.1013 26.9653 18.9025 26.1277 18.9025C24.3468 18.9025 23.21 19.7485 23.21 20.331C23.21 20.5551 23.368 20.8035 23.6437 21.0278Z" fill="#FFCE54"/>
<path fill-rule="evenodd" clip-rule="evenodd" d="M29.57 21.094C29.6878 20.8917 29.7537 20.6745 29.7537 20.4487C29.7537 19.4083 28.3869 18.5479 26.6146 18.413C26.7558 18.1946 26.8334 17.9571 26.8334 17.7098C26.8334 16.7155 25.5867 15.8871 23.9322 15.6966L23.9324 15.6847L23.9327 15.6755C23.933 15.6688 23.9332 15.6623 23.9332 15.656C23.9332 14.6606 22.6876 13.8322 21.032 13.6417C21.0331 13.6289 21.0341 13.6149 21.0341 13.601C21.0341 12.4665 19.4114 11.5461 17.4097 11.5461C15.4078 11.5461 13.7852 12.4666 13.7852 13.601C13.7852 13.6149 13.7863 13.6289 13.7873 13.6417C12.1317 13.8322 10.886 14.6606 10.886 15.656C10.886 15.6623 10.8863 15.6688 10.8865 15.6755C10.8868 15.6825 10.8871 15.6895 10.8871 15.6966C9.2326 15.8871 7.98587 16.7155 7.98587 17.7098C7.98587 17.9581 8.0634 18.1967 8.20676 18.4172C6.4535 18.5607 5.10693 19.4158 5.10693 20.4487C5.10693 20.6745 5.17277 20.8917 5.29062 21.094H29.57ZM16.1491 20.7441C15.6999 20.9368 15.1254 21.0427 14.5307 21.0427C13.9361 21.0427 13.3615 20.9367 12.9134 20.7441C12.6649 20.6371 12.5098 20.528 12.4238 20.4487C12.5099 20.3717 12.6649 20.2614 12.9134 20.1555C13.3615 19.9628 13.9361 19.8558 14.5307 19.8558C15.1255 19.8558 15.6999 19.9628 16.1491 20.1555C16.3965 20.2614 16.5516 20.3717 16.6387 20.4487C16.5516 20.528 16.3965 20.6371 16.1491 20.7441ZM15.3016 17.7099C15.3887 17.788 15.5438 17.8982 15.7912 18.0042C16.2404 18.1968 16.8149 18.3038 17.4096 18.3038C18.0042 18.3038 18.5788 18.1968 19.0279 18.0042C19.2753 17.8982 19.4305 17.788 19.5175 17.7099C19.4974 17.6917 19.4729 17.6724 19.4453 17.651C18.8114 17.5632 18.2432 17.3813 17.7887 17.1308C17.6645 17.1222 17.537 17.1169 17.4096 17.1169C17.2821 17.1169 17.1548 17.1222 17.0294 17.1308C16.5759 17.3813 16.0078 17.5632 15.3738 17.651C15.3462 17.6724 15.3218 17.6916 15.3016 17.7099ZM21.9475 20.7441C21.4994 20.9368 20.9248 21.0427 20.3302 21.0427C19.7355 21.0427 19.1611 20.9367 18.7118 20.7441C18.4643 20.6371 18.3093 20.528 18.2222 20.4487C18.3093 20.3717 18.4644 20.2614 18.7118 20.1555C19.161 19.9628 19.7355 19.8558 20.3302 19.8558C20.9248 19.8558 21.4994 19.9628 21.9475 20.1555C22.196 20.2614 22.3511 20.3717 22.4371 20.4487C22.3511 20.528 22.196 20.6371 21.9475 20.7441ZM28.2365 20.4487C28.1505 20.3717 27.9954 20.2614 27.7469 20.1555C27.2988 19.9628 26.7231 19.8558 26.1296 19.8558C25.5349 19.8558 24.9604 19.9628 24.5112 20.1555C24.2627 20.2614 24.1077 20.3717 24.0216 20.4487C24.1076 20.528 24.2627 20.6371 24.5112 20.7441C24.9604 20.9367 25.5349 21.0427 26.1296 21.0427C26.7231 21.0427 27.2988 20.9368 27.7469 20.7441C27.9954 20.6371 28.1504 20.5279 28.2365 20.4487ZM23.2089 17.1169C23.8036 17.1169 24.3781 17.2229 24.8263 17.4155C25.0747 17.5226 25.2298 17.6317 25.3158 17.7099C25.2298 17.788 25.0747 17.8982 24.8263 18.0042C24.3781 18.1968 23.8036 18.3038 23.2089 18.3038C22.6142 18.3038 22.0398 18.1968 21.5905 18.0042C21.342 17.8982 21.1869 17.788 21.101 17.7099C21.1211 17.6916 21.1455 17.6724 21.1732 17.651C21.8072 17.5632 22.3753 17.3813 22.8288 17.1308C22.9541 17.1222 23.0804 17.1169 23.2089 17.1169ZM21.927 15.3605C21.4777 15.1679 20.9032 15.062 20.3085 15.062C20.1811 15.062 20.0537 15.0673 19.9294 15.0769C19.4749 15.3263 18.9067 15.5082 18.2727 15.596C18.2451 15.6174 18.2217 15.6367 18.2015 15.6559L18.2116 15.6645C18.2294 15.6797 18.2496 15.6969 18.2727 15.7148C18.9067 15.8026 19.4748 15.9856 19.9294 16.2339C20.0547 16.2436 20.1811 16.2489 20.3084 16.2489C20.437 16.2489 20.5633 16.2436 20.6886 16.2339C21.1421 15.9856 21.7103 15.8026 22.3443 15.7148C22.3719 15.6934 22.3963 15.6731 22.4165 15.6559C22.3305 15.5767 22.1754 15.4676 21.927 15.3605ZM15.7912 13.3067C16.2404 13.1141 16.8149 13.0082 17.4096 13.0082C18.0043 13.0082 18.5788 13.1141 19.0279 13.3067C19.2754 13.4127 19.4305 13.5229 19.5175 13.601C19.4973 13.6193 19.4729 13.6396 19.4453 13.661C18.8114 13.7488 18.2432 13.9307 17.7887 14.1791C17.6645 14.1897 17.537 14.194 17.4096 14.194C17.2821 14.194 17.1547 14.1897 17.0294 14.1791C16.576 13.9307 16.0079 13.7488 15.3738 13.661C15.3462 13.6396 15.3218 13.6193 15.3016 13.601C15.3887 13.523 15.5437 13.4127 15.7912 13.3067ZM14.5102 15.062C13.9155 15.062 13.341 15.1679 12.8918 15.3605C12.6433 15.4676 12.4882 15.5767 12.4022 15.656C12.4224 15.6731 12.4468 15.6935 12.4744 15.7149C13.1084 15.8026 13.6766 15.9856 14.13 16.234C14.2553 16.2436 14.3816 16.249 14.5102 16.249C14.6375 16.249 14.764 16.2436 14.8892 16.234C15.3427 15.9856 15.9119 15.8026 16.5459 15.7149C16.569 15.6969 16.5891 15.6798 16.6068 15.6647L16.617 15.656C16.5969 15.6368 16.5735 15.6174 16.5459 15.596C15.912 15.5083 15.3438 15.3264 14.8892 15.077C14.764 15.0673 14.6376 15.062 14.5102 15.062ZM9.99233 17.4155C10.4404 17.2229 11.015 17.1169 11.6097 17.1169C11.7382 17.1169 11.8646 17.1222 11.9899 17.1308C12.4433 17.3813 13.0114 17.5632 13.6455 17.651C13.6731 17.6724 13.6975 17.6917 13.7177 17.7099C13.6307 17.788 13.4767 17.8982 13.2281 18.0042C12.7789 18.1968 12.2044 18.3038 11.6097 18.3038C11.015 18.3038 10.4405 18.1968 9.99233 18.0042C9.74383 17.8982 9.58877 17.788 9.50274 17.7099C9.58877 17.6317 9.74383 17.5225 9.99233 17.4155ZM8.73087 19.8558C8.13722 19.8558 7.56166 19.9628 7.11349 20.1555C6.86498 20.2614 6.70999 20.3718 6.62396 20.4487C6.70993 20.528 6.86498 20.6371 7.11349 20.7441C7.56166 20.9367 8.1362 21.0427 8.73087 21.0427C9.32553 21.0427 9.90007 20.9368 10.3493 20.7441C10.5978 20.6371 10.7528 20.5279 10.8388 20.4487C10.7528 20.3717 10.5978 20.2614 10.3493 20.1555C9.90007 19.9628 9.3256 19.8558 8.73087 19.8558Z" fill="#F6BB42"/>
<rect x="16.6533" y="24.8689" width="1.5543" height="1.77635" fill="#AAB2BC"/>
<path d="M18.6516 24.2027C18.6516 24.8163 18.154 25.313 17.5419 25.313C16.9287 25.313 16.4312 24.8163 16.4312 24.2027C16.4312 23.5893 16.9287 23.0925 17.5419 23.0925C18.1539 23.0925 18.6516 23.5892 18.6516 24.2027Z" fill="#434A54"/>
<path d="M21.537 10.436C21.537 10.436 21.5381 10.4349 21.5381 10.4338V7.4153C21.5381 6.99958 21.2147 6.66125 20.8162 6.66125H13.6004C13.2019 6.66125 12.8784 6.99958 12.8784 7.4153V10.4338C12.8784 10.4349 12.8784 10.436 12.8784 10.436H21.537Z" fill="#CCD1D9"/>
<path d="M14.5294 10.3179V8.15893H20.3361V10.3179H21.7878C21.7878 8.84701 21.7888 7.43928 21.7888 7.43928C21.7888 7.04311 21.4635 6.7207 21.0625 6.7207H13.803C13.4021 6.7207 13.0767 7.04311 13.0767 7.43928C13.0767 7.43928 13.0767 8.84701 13.0767 10.3179H14.5294Z" fill="#AAB2BC"/>
<path d="M3.78564 21.1056L6.35618 32.617H7.84291L5.27353 21.1056H3.78564Z" fill="#AAB2BC"/>
<path d="M29.5989 21.1075L27.0264 32.62H28.5132L31.0857 21.1075H29.5989Z" fill="#AAB2BC"/>
<path d="M20.3361 21.1075V27.5781H14.5294V21.1064H13.0767V28.2978C13.0767 28.694 13.4021 29.0164 13.803 29.0164H21.0625C21.4635 29.0164 21.7888 28.694 21.7888 28.2978V21.1075H20.3361Z" fill="#AAB2BC"/>
<path fill-rule="evenodd" clip-rule="evenodd" d="M15.2759 23.982C15.2759 22.7902 16.2511 21.8241 17.4539 21.8241C18.6557 21.8241 19.6309 22.7902 19.6309 23.982C19.6309 25.1736 18.6557 26.1399 17.4539 26.1399C16.2511 26.1399 15.2759 25.1736 15.2759 23.982ZM16.7282 23.9821C16.7282 24.3783 17.0536 24.7007 17.4545 24.7007C17.8544 24.7007 18.1798 24.3783 18.1798 23.9821C18.1798 23.5859 17.8544 23.2625 17.4545 23.2625C17.0536 23.2625 16.7282 23.5859 16.7282 23.9821Z" fill="#AAB2BC"/>
<path opacity="0.1" d="M0 21.3161L0.53299 19.7618H34.3247L34.8608 21.3161H0Z" fill="black"/>
</svg>
