<?xml version="1.0" encoding="UTF-8" standalone="no"?>
<svg width="254px" height="254px" viewBox="0 0 254 254" version="1.1" xmlns="http://www.w3.org/2000/svg" xmlns:xlink="http://www.w3.org/1999/xlink">
    <!-- Generator: Sketch 50.2 (55047) - http://www.bohemiancoding.com/sketch -->
    <title>Group 2</title>
    <desc>Created with Sketch.</desc>
    <defs></defs>
    <g id="Page-1" stroke="none" stroke-width="1" fill="none" fill-rule="evenodd">
        <g id="iPhone-8-Copy-5" transform="translate(-62.000000, -140.000000)">
            <g id="Group-2" transform="translate(62.000000, 140.000000)">
                <circle id="Oval-3" fill="#FCC4C4" cx="127" cy="127" r="127"></circle>
                <g id="treasure" transform="translate(49.000000, 50.000000)" fill-rule="nonzero">
                    <path d="M145.395724,62.7826417 L156.980976,45.4129499 C156.980976,45.4129499 158.447351,2.23356347 130.816048,0 L78.509512,0 L78.4855787,0 L26.1793493,0 C-1.45164676,2.23356347 0.0144213481,45.4126456 0.0144213481,45.4126456 L11.6524492,62.6158625 L0,94.0668343 L13.0801627,145.981131 L143.914928,146 L157,94.080834 L145.395724,62.7826417 Z" id="Shape" fill="#A85D5D"></path>
                    <g id="Group" opacity="0.2" fill="#FFFFFF">
                        <path d="M0.181837891,45.6934342 C0.976957031,33.7140658 5.14266992,8.43676316 26.1625781,6.74051316 L78.4352988,6.74051316 L78.4592168,6.74051316 L130.731937,6.74051316 C151.752459,8.43706579 155.922465,33.72375 156.712984,45.6982763 L156.88041,45.4525395 C156.88041,45.4525395 158.345846,2.51577632 130.732244,0.294763158 L78.4592168,0.294763158 L78.4352988,0.294763158 L26.1625781,0.294763158 C-1.4507168,2.51577632 0.0144121094,45.4522368 0.0144121094,45.4522368 L0.181837891,45.6934342 Z" id="Shape"></path>
                    </g>
                    <polygon id="Shape" fill="#723F3F" points="157 94 0 93.9859073 11.6524492 63 145.395724 63.1640148"></polygon>
                    <polygon id="Shape" fill="#8C4C4C" points="145.412564 63 11.6405304 62.8370712 0 46 157 46"></polygon>
                    <path d="M82,120.497373 C82,122.430797 80.4307967,124 78.5026274,124 C76.5692033,124 75,122.430797 75,120.497373 C75,118.56362 76.5692033,117 78.5026274,117 C80.4307967,117 82,118.563949 82,120.497373 Z" id="Shape" fill="#000000"></path>
                    <g id="Group" transform="translate(26.000000, 56.000000)" fill="#FFCE54">
                        <path d="M26.2310769,30.4753846 C22.4593846,30.4753846 18.8221538,29.6443077 16.2470769,28.1981538 C14.2818462,27.0932308 13.1144615,25.7236923 13.1144615,24.5323077 C13.1144615,22.1107692 18.2267692,18.5892308 26.2310769,18.5892308 C30.0024615,18.5892308 33.6446154,19.4203077 36.2196923,20.8713846 C38.18,21.9713846 39.3523077,23.3409231 39.3523077,24.5323077 C39.3523077,26.9584615 34.24,30.4753846 26.2310769,30.4753846 Z" id="Shape"></path>
                        <path d="M52.4689231,30.4753846 C48.6972308,30.4753846 45.06,29.6443077 42.48,28.1981538 C40.5196923,27.0932308 39.3523077,25.7236923 39.3523077,24.5323077 C39.3523077,22.1107692 44.4596923,18.5892308 52.4689231,18.5892308 C56.2403077,18.5892308 59.8775385,19.4203077 62.4575385,20.8713846 C64.4178462,21.9713846 65.5852308,23.3409231 65.5852308,24.5323077 C65.5852308,26.9584615 60.4784615,30.4753846 52.4689231,30.4753846 Z" id="Shape"></path>
                        <path d="M78.7067692,30.4753846 C74.9350769,30.4753846 71.2932308,29.6443077 68.7181538,28.1981538 C66.7578462,27.0932308 65.5852308,25.7236923 65.5852308,24.5323077 C65.5852308,22.1107692 70.6975385,18.5892308 78.7067692,18.5892308 C82.4784615,18.5892308 86.1153846,19.4203077 88.6907692,20.8713846 C90.6510769,21.9713846 91.8233846,23.3409231 91.8233846,24.5323077 C91.8233846,26.9584615 86.7116923,30.4753846 78.7067692,30.4753846 Z" id="Shape"></path>
                        <path d="M39.3523077,21.2507692 C35.5806154,21.2507692 31.9387692,20.4243077 29.3633846,18.9735385 C27.4030769,17.8683077 26.2307692,16.504 26.2307692,15.3123077 C26.2307692,12.8861538 31.3427692,9.364 39.3523077,9.364 C43.1190769,9.364 46.7609231,10.2 49.3363077,11.6461538 C51.2966154,12.7464615 52.4689231,14.1206154 52.4689231,15.3123077 C52.4689231,17.7335385 47.3566154,21.2507692 39.3523077,21.2507692 Z" id="Shape"></path>
                        <path d="M65.5852308,21.2507692 C61.8184615,21.2507692 58.1766154,20.4243077 55.6015385,18.9735385 C53.6412308,17.8683077 52.4689231,16.504 52.4689231,15.3123077 C52.4689231,12.8861538 57.5812308,9.364 65.5852308,9.364 C69.3569231,9.364 72.9987692,10.2 75.5741538,11.6461538 C77.5344615,12.7464615 78.7067692,14.1206154 78.7067692,15.3123077 C78.7067692,17.7335385 73.5950769,21.2507692 65.5852308,21.2507692 Z" id="Shape"></path>
                        <path d="M52.4689231,12.0304615 C48.6972308,12.0304615 45.06,11.1990769 42.48,9.74830769 C40.5196923,8.64830769 39.3523077,7.27876923 39.3523077,6.08738462 C39.3523077,3.66584615 44.4596923,0.144307692 52.4689231,0.144307692 C56.2403077,0.144307692 59.8775385,0.975384615 62.4575385,2.42646154 C64.4178462,3.52676923 65.5852308,4.896 65.5852308,6.08738462 C65.5852308,8.50861538 60.4784615,12.0304615 52.4689231,12.0304615 Z" id="Shape"></path>
                        <path d="M2.03969231,39.7243077 L24.3523077,39.7243077 C25.6301538,38.7633846 26.3267692,37.7209231 26.3267692,36.8273846 C26.3267692,35.6356923 25.1544615,34.2710769 23.1941538,33.1661538 C20.6187692,31.7153846 16.9769231,30.8889231 13.2055385,30.8889231 C5.20092308,30.8889231 0.0889230769,34.4061538 0.0889230769,36.8276923 C0.0889230769,37.7593846 0.8,38.792 2.03969231,39.7243077 Z" id="Shape"></path>
                        <path d="M28.2775385,39.7243077 L50.5901538,39.7243077 C51.868,38.7633846 52.56,37.7209231 52.56,36.8273846 C52.56,35.6356923 51.3926154,34.2710769 49.4323077,33.1661538 C46.8569231,31.7153846 43.2150769,30.8889231 39.4433846,30.8889231 C31.4341538,30.8889231 26.3267692,34.4061538 26.3267692,36.8276923 C26.3270769,37.7593846 27.0381538,38.792 28.2775385,39.7243077 Z" id="Shape"></path>
                    </g>
                    <rect id="Rectangle-path" fill="#CCD1D9" x="64" y="95" width="30" height="30"></rect>
                    <g id="Group" transform="translate(78.000000, 85.000000)" fill="#FFCE54">
                        <path d="M2.20627907,9.70133333 L24.5513256,9.70133333 C25.8313372,8.66033333 26.5289651,7.531 26.5289651,6.563 C26.5289651,5.272 25.3595756,3.79366667 23.3967267,2.59666667 C20.8126686,1.025 17.1704593,0.129666667 13.3932849,0.129666667 C5.37272093,0.129666667 0.252674419,3.94 0.252674419,6.56333333 C0.252674419,7.57266667 0.969715116,8.69133333 2.20627907,9.70133333 Z" id="Shape"></path>
                        <path d="M28.4825698,9.70133333 L50.8276163,9.70133333 C52.1076279,8.66033333 52.8052558,7.531 52.8052558,6.563 C52.8052558,5.272 51.6312442,3.79366667 49.6680872,2.59666667 C47.0889593,1.025 43.4418198,0.129666667 39.6695756,0.129666667 C31.6490116,0.129666667 26.5289651,3.94 26.5289651,6.56333333 C26.5289651,7.57266667 27.2407674,8.69133333 28.4825698,9.70133333 Z" id="Shape"></path>
                    </g>
                    <path d="M133.172419,95 C133.70321,94.0890668 134,93.1105312 134,92.0937186 C134,87.4081694 127.844292,83.5332304 119.862514,82.9257358 C120.498361,81.9422613 120.847832,80.8723546 120.847832,79.7589232 C120.847832,75.2808112 115.233022,71.5500287 107.781729,70.6921895 C107.781729,70.6295262 107.78663,70.5668629 107.78663,70.5091385 C107.78663,66.0263963 102.176721,62.2956138 94.7205277,61.4377746 C94.7254282,61.3797416 94.7300225,61.3170782 94.7300225,61.2544149 C94.7300225,56.1450395 87.4220713,52 78.4068895,52 C69.3914014,52 62.0837564,56.1453482 62.0837564,61.2544149 C62.0837564,61.3170782 62.088657,61.3797416 62.0932513,61.4377746 C54.6370582,62.2956138 49.0268427,66.0263963 49.0268427,70.5091385 C49.0268427,70.5671716 49.0317432,70.6295262 49.0317432,70.6921895 C41.5804508,71.5500287 35.9656409,75.2808112 35.9656409,79.7589232 C35.9656409,80.8769849 36.3148054,81.9518306 36.9604534,82.9448744 C29.0644357,83.5909548 23,87.4418162 23,92.0937186 C23,93.1105312 23.2964835,94.0890668 23.8272748,95 L133.172419,95 Z M72.7295976,93.4238478 C70.7065876,94.291565 68.1190951,94.7684853 65.4409423,94.7684853 C62.7627895,94.7684853 60.1752969,94.2912563 58.1568812,93.4238478 C57.0377172,92.9416798 56.3393882,92.4502513 55.9522444,92.0934099 C56.3396945,91.7464465 57.0377172,91.2497703 58.1568812,90.77285 C60.1752969,89.9048241 62.7627895,89.4229648 65.4409423,89.4229648 C68.1194013,89.4229648 70.7065876,89.9051328 72.7295976,90.77285 C73.8438611,91.2497703 74.54219,91.7464465 74.9345406,92.0934099 C74.54219,92.4502513 73.8438611,92.9419885 72.7295976,93.4238478 Z M71.1179279,81.0844221 C70.0036644,80.6071931 69.3053354,80.1108256 68.9129848,79.7589232 C69.0039513,79.6768126 69.1139075,79.5900718 69.2382591,79.4940704 C72.0934444,79.0986432 74.6521462,78.2790811 76.6944521,77.1511414 C77.2589347,77.1125556 77.8326058,77.0884781 78.4065832,77.0884781 C78.9805606,77.0884781 79.554538,77.1125556 80.1138137,77.1511414 C82.1610202,78.2790811 84.719722,79.0986432 87.574601,79.4940704 C87.6989526,79.5903805 87.809215,79.6771213 87.8998753,79.7589232 C87.507831,80.1108256 86.8091957,80.6071931 85.6949322,81.0844221 C83.6722285,81.9521393 81.0844297,82.4339986 78.4065832,82.4339986 C75.7281241,82.4339986 73.1409378,81.9518306 71.1179279,81.0844221 Z M98.8425062,93.4238478 C96.8243968,94.291565 94.2369043,94.7684853 91.5587515,94.7684853 C88.8805987,94.7684853 86.2934124,94.2912563 84.2700961,93.4238478 C83.1555264,92.9416798 82.4575037,92.4502513 82.0651531,92.0934099 C82.4575037,91.7464465 83.1558327,91.2497703 84.2700961,90.77285 C86.2931061,89.9048241 88.8805987,89.4229648 91.5587515,89.4229648 C94.2369043,89.4229648 96.8243968,89.9051328 98.8425062,90.77285 C99.9616703,91.2497703 100.659999,91.7464465 101.047449,92.0934099 C100.659999,92.4502513 99.9616703,92.9419885 98.8425062,93.4238478 Z M124.960622,90.77285 C126.079786,91.2497703 126.778421,91.7464465 127.165565,92.0934099 C126.778115,92.4499426 126.079786,92.9416798 124.960622,93.4238478 C122.942512,94.291565 120.350119,94.7684853 117.676867,94.7684853 C114.998714,94.7684853 112.411528,94.2912563 110.388212,93.4238478 C109.269048,92.9416798 108.570719,92.4502513 108.183269,92.0934099 C108.571025,91.7464465 109.269048,91.2497703 110.388212,90.77285 C112.411222,89.9048241 114.998714,89.4229648 117.676867,89.4229648 C120.350119,89.4229648 122.942512,89.9051328 124.960622,90.77285 Z M104.524392,77.0881694 C107.202545,77.0881694 109.790038,77.5657071 111.808453,78.4331156 C112.927311,78.9152836 113.625946,79.4067121 114.01309,79.7586145 C113.62564,80.1105169 112.927311,80.6068844 111.808453,81.0841134 C109.790038,81.9518306 107.202545,82.4336899 104.524392,82.4336899 C101.84624,82.4336899 99.2590533,81.9515219 97.2357371,81.0841134 C96.116573,80.6068844 95.4182441,80.1105169 95.0311003,79.7586145 C95.1217606,79.6765039 95.2317167,79.5897631 95.3563746,79.4937617 C98.2115599,79.0983345 100.770262,78.2787724 102.812568,77.1508327 C103.376744,77.1122469 103.945821,77.0881694 104.524392,77.0881694 Z M91.4628844,67.8337545 C94.1410372,67.8337545 96.7285297,68.3109835 98.751846,69.178392 C99.8707037,69.6605599 100.569339,70.1519885 100.956483,70.5088299 C100.865516,70.5860014 100.75556,70.6773726 100.631208,70.7739914 C97.7760232,71.1691098 95.2170151,71.9933022 93.1747092,73.1116726 C92.6105329,73.1551974 92.041456,73.1792749 91.4625781,73.1792749 C90.888907,73.1792749 90.3198301,73.1551974 89.7553476,73.1116726 C87.7081411,71.9933022 85.1497456,71.1691098 82.2945603,70.7739914 C82.1702087,70.6776813 82.0648468,70.5860014 81.9738803,70.5088299 C82.0648468,70.422089 82.1702087,70.3353482 82.2945603,70.2387294 C85.1497456,69.8436109 87.7084474,69.0240488 89.7553476,67.9010481 C90.3152359,67.857832 90.8892133,67.8337545 91.4628844,67.8337545 Z M71.1179279,59.9286073 C73.1409378,59.0608902 75.7284304,58.5839698 78.4065832,58.5839698 C81.084736,58.5839698 83.6722285,59.0611989 85.6949322,59.9286073 C86.809502,60.4058363 87.507831,60.9022039 87.8998753,61.2541062 C87.8089087,61.3362168 87.6989526,61.4275879 87.574601,61.5242067 C84.719722,61.9196339 82.1607139,62.7388873 80.1138137,63.8572577 C79.554538,63.9054128 78.9805606,63.9245513 78.4065832,63.9245513 C77.8326058,63.9245513 77.2586284,63.9054128 76.6944521,63.8572577 C74.6524525,62.7388873 72.0937507,61.9196339 69.2382591,61.5242067 C69.1139075,61.4278966 69.0039513,61.3362168 68.9129848,61.2541062 C69.3053354,60.9025126 70.0033581,60.4058363 71.1179279,59.9286073 Z M58.0613204,69.178392 C60.0843304,68.3106748 62.6718229,67.8337545 65.3499757,67.8337545 C65.9239531,67.8337545 66.49303,67.857832 67.0572062,67.9013568 C69.1044127,69.0246662 71.6631145,69.8439196 74.5179935,70.239038 C74.6423451,70.3353482 74.747707,70.4223977 74.8383673,70.5091385 C74.7474007,70.5863101 74.6423451,70.6776813 74.5179935,70.7743001 C71.6628082,71.1694185 69.0995122,71.9936109 67.0572062,73.1119813 C66.49303,73.1555061 65.9236468,73.1795836 65.3499757,73.1795836 C64.7710978,73.1795836 64.2020209,73.1555061 63.6378446,73.1119813 C61.595845,71.9936109 59.0371432,71.1694185 56.1816516,70.7743001 C56.0573001,70.6779899 55.9473439,70.5863101 55.8563773,70.5091385 C56.2438274,70.1519885 56.9421564,69.6605599 58.0613204,69.178392 Z M45.0047129,78.4334243 C47.0228223,77.5657071 49.6103149,77.0884781 52.288774,77.0884781 C52.8673456,77.0884781 53.4367288,77.1125556 54.0009051,77.1511414 C56.0429047,78.2790811 58.6016065,79.0986432 61.4570981,79.4940704 C61.5814496,79.5903805 61.6914058,79.6771213 61.7823724,79.7589232 C61.390328,80.1108256 60.6968996,80.6071931 59.5774293,81.0844221 C57.5544193,81.9521393 54.9669268,82.4339986 52.288774,82.4339986 C49.6103149,82.4339986 47.0231286,81.9518306 45.0047129,81.0844221 C43.8855489,80.6071931 43.1872199,80.1108256 42.7997699,79.7589232 C43.1872199,79.4070208 43.8855489,78.9152836 45.0047129,78.4334243 Z M32.0387657,90.77285 C34.0571814,89.9048241 36.6492682,89.4229648 39.3228268,89.4229648 C42.0012858,89.4229648 44.5884721,89.9051328 46.6114821,90.77285 C47.7306461,91.2497703 48.4289751,91.7464465 48.8161188,92.0934099 C48.4286688,92.4499426 47.7306461,92.9416798 46.6114821,93.4238478 C44.5884721,94.291565 42.0009796,94.7684853 39.3228268,94.7684853 C36.644674,94.7684853 34.0571814,94.2912563 32.0387657,93.4238478 C30.9196017,92.9416798 30.2212727,92.4502513 29.8341289,92.0934099 C30.221579,91.7467552 30.9196017,91.2497703 32.0387657,90.77285 Z" id="Shape" fill="#F6BB42"></path>
                    <rect id="Rectangle-path" fill="#AAB2BC" x="75" y="112" width="7" height="8"></rect>
                    <path d="M84,109 C84,111.763132 81.7590716,114 79.0026152,114 C76.2409284,114 74,111.763132 74,109 C74,106.237195 76.2409284,104 79.0026152,104 C81.7587447,103.999673 84,106.236868 84,109 Z" id="Shape" fill="#434A54"></path>
                    <path d="M96.9951219,47 C96.9951219,47 97,46.9948977 97,46.9901142 L97,33.3959181 C97,31.5236827 95.5435748,30 93.7487297,30 L61.2515752,30 C59.4567301,30 58,31.5236827 58,33.3959181 L58,46.9901142 C58,46.9952166 58,47 58,47 L96.9951219,47 Z" id="Shape" fill="#CCD1D9"></path>
                    <g id="Group" transform="translate(17.000000, 30.000000)" fill="#AAB2BC">
                        <path d="M48.4316334,16.4681299 L48.4316334,6.74497403 L74.582783,6.74497403 L74.582783,16.4681299 L81.1204938,16.4681299 C81.1204938,9.8438026 81.1254015,3.50392208 81.1254015,3.50392208 C81.1254015,1.71974805 79.6601372,0.267732468 77.854399,0.267732468 L45.1603242,0.267732468 C43.354586,0.267732468 41.889015,1.71974805 41.889015,3.50392208 C41.889015,3.50392208 41.889015,9.8438026 41.889015,16.4681299 L48.4316334,16.4681299 Z" id="Shape"></path>
                        <polygon id="Shape" points="0.0466234414 65.0510883 11.6233466 116.89394 18.3190249 116.89394 6.74751621 65.0510883"></polygon>
                        <polygon id="Shape" points="116.300641 65.0605091 104.714716 116.908223 111.410701 116.908223 122.996626 65.0605091"></polygon>
                        <path d="M74.582783,65.0605091 L74.582783,94.2020182 L48.4316334,94.2020182 L48.4316334,65.0559506 L41.889015,65.0559506 L41.889015,97.4430701 C41.889015,99.2272442 43.354586,100.67926 45.1603242,100.67926 L77.854399,100.67926 C79.6601372,100.67926 81.1254015,99.2272442 81.1254015,97.4430701 L81.1254015,65.0605091 L74.582783,65.0605091 Z" id="Shape"></path>
                        <path d="M61.6030623,68.2875818 C56.1858479,68.2875818 51.7940424,72.6387662 51.7940424,78.0058753 C51.7940424,83.3726805 56.1861546,87.7241688 61.6030623,87.7241688 C67.0153691,87.7241688 71.4074813,83.3726805 71.4074813,78.0058753 C71.4074813,72.6387662 67.0153691,68.2875818 61.6030623,68.2875818 Z M61.6030623,81.2423688 C59.7973242,81.2423688 58.3317531,79.7903532 58.3317531,78.0061792 C58.3317531,76.2217013 59.7973242,74.7651273 61.6030623,74.7651273 C63.4038928,74.7651273 64.8694638,76.2217013 64.8694638,78.0061792 C64.8694638,79.7903532 63.4038928,81.2423688 61.6030623,81.2423688 Z" id="Shape"></path>
                    </g>
                    <polygon id="Shape" fill="#000000" opacity="0.1" points="0 96 2.40038736 89 154.585498 89 157 96"></polygon>
                </g>
                <g id="sparkles" transform="translate(19.000000, 30.000000)" fill-rule="nonzero">
                    <path d="M21.1023947,39.9549154 C21.2435544,40.9900018 22.0011453,41.8344258 23.0150868,42.087724 L34.5903266,44.9798473 C35.1324785,45.1152683 35.1385717,45.8837174 34.5964199,46.0192834 C31.5244194,46.7868625 25.8292859,48.2097982 23.0085583,48.9144515 C21.9944718,49.1677497 21.2435544,50.0110138 21.1022497,51.0461002 L18.0335859,73.5359945 C17.9491512,74.1546685 17.0543178,74.1546685 16.9698831,73.5359945 L13.9013644,51.0465352 C13.7600597,50.0114488 13.0089972,49.1681847 11.9947656,48.9148865 C9.17389296,48.2103782 3.4786144,46.7875875 0.406613903,46.0200084 C-0.135537968,45.8845873 -0.135537968,45.1175882 0.406613903,44.9821671 C3.47890455,44.214588 9.17447327,42.7913624 11.9952008,42.0864191 C13.0091423,41.8329759 13.7600597,40.9898568 13.9012193,39.9549154 L16.9698831,17.4647311 C17.0543178,16.8460571 17.9490062,16.8446072 18.0334408,17.4632812 C18.9886263,24.4626922 20.9133597,38.5693872 21.1023947,39.9549154 Z" id="Shape" fill="#FFC850"></path>
                    <path d="M48.1911139,15.8291533 C47.5128694,15.6666744 47.0062236,15.1248845 46.9117642,14.4608722 C46.5189354,11.6990226 45.4806099,4.3998279 44.9039565,0.346286073 C44.8381697,-0.116589688 44.1690945,-0.114845729 44.1031621,0.348030032 L42.0955,14.4607268 C42.0011861,15.1245939 41.4987612,15.6655118 40.8206621,15.828136 C39.0051207,16.263399 35.4085324,17.1253507 33.3090306,17.6284829 C32.8969898,17.7273072 32.8969898,18.3100801 33.3090306,18.4089045 C35.4083868,18.9120366 39.0048296,19.773843 40.8205166,20.2086701 C41.4987612,20.3711489 42.0011861,20.9120668 42.0956455,21.5760792 L44.0974858,35.6479383 C44.1642915,36.1173539 44.8431182,36.1173539 44.9099239,35.6479383 L46.9117642,21.5757885 C47.0062236,20.9117762 47.5086485,20.3708583 48.1867476,20.2083794 C50.0008335,19.7736977 53.5923278,18.9130539 55.6925572,18.4097765 C56.1060535,18.3106615 56.1006683,17.7246913 55.687172,17.6255763 L48.1911139,15.8291533 Z" id="Shape" fill="#FFDC64"></path>
                    <path d="M59.6285508,58.241319 C59.0533827,58.1105365 58.6237037,57.6748825 58.5436306,57.1406741 C58.2284299,55.0395214 57.4236882,49.6736977 56.923656,46.339535 C56.8549999,45.8815804 56.1466853,45.8894936 56.0780293,46.3474482 L54.4592889,57.1405302 C54.3792159,57.6745948 53.9532397,58.1096732 53.3782258,58.2404557 C51.9268828,58.5705053 49.1332752,59.2055702 47.3263092,59.6161899 C46.8912303,59.7150321 46.8912303,60.2896695 47.3263092,60.3885117 C49.1331209,60.7992752 51.9265743,61.4340524 53.3780715,61.7639581 C53.953394,61.8945967 54.3793701,62.3296752 54.4594432,62.8638836 L56.0780293,73.6565341 C56.1466853,74.1144886 56.8562342,74.1144886 56.9248903,73.6565341 L58.5436306,62.8637398 C58.6237037,62.3296752 59.0496799,61.8945967 59.624848,61.7638142 C61.076191,61.4339085 63.8694901,60.7989875 65.6763018,60.3883678 C66.1113807,60.2895256 66.1061351,59.7137372 65.6710562,59.614895 L59.6285508,58.241319 Z" id="Shape" fill="#FFF082"></path>
                    <path d="M17.3925895,73.533122 L20,53.5962166 C17.1727751,47.6186025 15.0822293,41.4164668 13.7660012,37 L13.4071062,39.7441529 C13.270824,40.7855013 12.5467377,41.6338399 11.5688363,41.8888521 C8.84837037,42.5983053 3.35510839,44.0301959 0.392160978,44.8025268 C-0.130720326,44.9389321 -0.130720326,45.7105336 0.392160978,45.846793 C3.35510839,46.6191239 8.84781069,48.0508686 11.5684165,48.7595924 C12.5465978,49.0144587 13.270964,49.8629432 13.4072461,50.9044375 L16.3666955,73.533122 C16.4479891,74.155626 17.311156,74.155626 17.3925895,73.533122 Z" id="Shape" fill="#EBAF4B"></path>
                    <path d="M42.4779847,13 L42.2937252,14.2781645 C42.1973571,14.9476584 41.6839886,15.493161 40.9911195,15.6571635 C39.1360329,16.0961158 35.4609567,16.9652266 33.3158733,17.4727698 C32.8947089,17.5724317 32.8947089,18.1601441 33.3158733,18.2598061 C35.4609567,18.7672027 39.1357355,19.636167 40.9909708,20.0748261 C41.6839886,20.2386821 42.1973571,20.7841847 42.293874,21.4538251 L44.3393174,35.6449543 C44.4075782,36.1183486 45.1011908,36.1183486 45.1696003,35.6449543 L47,22.9452369 C44.6022477,19.5636189 43.2359915,15.858979 42.4779847,13 Z" id="Shape" fill="#FFC850"></path>
                    <path d="M54.1713592,62.940196 L55.7274676,74.6280452 C55.7934736,75.1239849 56.4756338,75.1239849 56.5416397,74.6280452 L58,63.6756141 C55.810383,61.1295408 54.7606661,58.0873719 54.2701456,56 L54.1713592,56.7422736 C54.094377,57.3206363 53.6848436,57.7918024 53.1320254,57.9334327 C51.7367044,58.2908583 49.0509304,58.978443 47.3137136,59.4232774 C46.8954288,59.5303182 46.8954288,60.1526189 47.3137136,60.2596596 C49.0507821,60.7044941 51.7364078,61.3920788 53.131877,61.7491928 C53.6846953,61.8905114 54.0942287,62.3616776 54.1713592,62.940196 Z" id="Shape" fill="#FFDC64"></path>
                </g>
                <g id="sparkles" transform="translate(154.000000, 56.000000)" fill-rule="nonzero">
                    <path d="M19.293618,36.3440441 C19.4226783,37.3064929 20.1153328,38.0916591 21.0423651,38.327182 L31.6254415,41.0163492 C32.1211232,41.142267 32.1266942,41.8567898 31.6310125,41.9828425 C28.8223263,42.6965564 23.6153471,44.0196369 21.0363962,44.6748409 C20.1092313,44.9103638 19.4226783,45.6944514 19.2934854,46.6569002 L16.48785,67.5685563 C16.4106526,68.1438146 15.5925191,68.1438146 15.5153217,67.5685563 L12.7098189,46.6573046 C12.580626,45.6948559 11.8939403,44.9107682 10.9666428,44.6752453 C8.38755928,44.0201762 3.18044745,42.6972305 0.371761283,41.9835165 C-0.123920428,41.8575987 -0.123920428,41.1444241 0.371761283,41.0185063 C3.18071274,40.3047924 8.38808985,38.9814422 10.9670407,38.3259686 C11.894073,38.0903109 12.580626,37.306358 12.7096863,36.3440441 L15.5153217,15.4321184 C15.5925191,14.8568601 16.4105199,14.8555119 16.4877173,15.4307702 C17.3610297,21.9389945 19.120786,35.055746 19.293618,36.3440441 Z" id="Shape" fill="#FFC850"></path>
                    <path d="M43.8701475,14.5100572 C43.2508807,14.3611182 42.7882911,13.8644775 42.7020456,13.2557995 C42.3433758,10.724104 41.3953395,4.03317557 40.8688298,0.3174289 C40.8087636,-0.10687388 40.1978689,-0.105275251 40.1376698,0.319027529 L38.3045869,13.2556663 C38.2184743,13.864211 37.7597385,14.3600525 37.1406046,14.5091246 C35.4829363,14.9081158 32.1990948,15.6982382 30.2821584,16.1594426 C29.9059472,16.2500316 29.9059472,16.7842401 30.2821584,16.8748291 C32.1989619,17.3360336 35.4826705,18.1260227 37.1404717,18.5246142 C37.7597385,18.6735532 38.2184743,19.1693946 38.3047198,19.7780726 L40.1324871,32.6772768 C40.1934835,33.1075744 40.8132819,33.1075744 40.8742783,32.6772768 L42.7020456,19.7778062 C42.7882911,19.1691282 43.2470269,18.6732867 43.8661608,18.5243478 C45.5225002,18.1258895 48.8016906,17.3369661 50.7192914,16.8756284 C51.0968315,16.784773 51.0919146,16.2476337 50.7143744,16.1567782 L43.8701475,14.5100572 Z" id="Shape" fill="#FFDC64"></path>
                    <path d="M54.2992297,54.366939 C53.7846055,54.2454981 53.4001559,53.8409623 53.3285116,53.3449116 C53.0464899,51.3938413 52.3264578,46.4112907 51.8790606,43.3152825 C51.8176315,42.890039 51.1838763,42.8973869 51.1224472,43.3226304 L49.6741006,53.344778 C49.6024563,53.8406951 49.2213197,54.2446965 48.7068336,54.3661374 C47.4082636,54.6726121 44.9087199,55.2623152 43.2919608,55.6436049 C42.9026797,55.735387 42.9026797,56.2689788 43.2919608,56.3607609 C44.9085818,56.7421842 47.4079875,57.3316201 48.7066956,57.6379611 C49.2214577,57.7592684 49.6025943,58.1632698 49.6742386,58.6593205 L51.1224472,68.6810673 C51.1838763,69.1063109 51.8187359,69.1063109 51.880165,68.6810673 L53.3285116,58.6591869 C53.4001559,58.1632698 53.7812925,57.7592684 54.2959166,57.6378275 C55.5944867,57.3314865 58.0937543,56.741917 59.7103753,56.3606273 C60.0996564,56.2688452 60.0949629,55.7341846 59.7056818,55.6424025 L54.2992297,54.366939 Z" id="Shape" fill="#FFF082"></path>
                    <path d="M16.52296,67.570977 L19,49.2505774 C16.3141363,43.7576347 14.3281178,38.0583749 13.0777011,34 L12.7367509,36.521654 C12.6072828,37.4785688 11.9194008,38.2581232 10.9903945,38.4924587 C8.40595185,39.1443887 3.18735297,40.46018 0.372552929,41.1698895 C-0.12418431,41.2952349 -0.12418431,42.0042741 0.372552929,42.1294854 C3.18735297,42.839195 8.40542015,44.1548522 10.9899957,44.8061119 C11.9192679,45.0403134 12.6074158,45.8200018 12.7368838,46.7770506 L15.5483607,67.570977 C15.6255896,68.1430077 16.4455982,68.1430077 16.52296,67.570977 Z" id="Shape" fill="#EBAF4B"></path>
                    <path d="M38.8009858,12 L38.6298877,13.1670198 C38.540403,13.7782968 38.0637037,14.2763644 37.4203253,14.4261058 C35.6977448,14.8268883 32.2851741,15.6204243 30.293311,16.0838333 C29.9022297,16.174829 29.9022297,16.711436 30.293311,16.8024316 C32.2851741,17.2657068 35.6974686,18.059109 37.4201872,18.4596238 C38.0637037,18.6092315 38.540403,19.1072991 38.6300258,19.7187099 L40.5293662,32.6758278 C40.5927511,33.1080574 41.23682,33.1080574 41.3003431,32.6758278 L43,21.0804337 C40.7735158,17.9928695 39.5048492,14.6103721 38.8009858,12 Z" id="Shape" fill="#FFC850"></path>
                    <path d="M49.5194175,58.2096491 L50.9340615,68.6671983 C50.9940669,69.1109339 51.6142125,69.1109339 51.6742179,68.6671983 L53,58.8676547 C51.0094391,56.5895891 50.055151,53.8676485 49.6092233,52 L49.5194175,52.6641396 C49.4494337,53.1816219 49.0771305,53.6031916 48.5745685,53.7299135 C47.3060949,54.0497153 44.8644822,54.6649227 43.2851942,55.0629324 C42.9049353,55.1587057 42.9049353,55.7155011 43.2851942,55.8112744 C44.8643474,56.2092842 47.3058252,56.8244915 48.5744337,57.1440146 C49.0769957,57.2704576 49.4492988,57.6920273 49.5194175,58.2096491 Z" id="Shape" fill="#FFDC64"></path>
                </g>
            </g>
        </g>
    </g>
</svg>