<svg viewBox="-47 0 512 512" xmlns="http://www.w3.org/2000/svg"><path d="m418.863281 455.335938-84.242187-16.289063-45.160156 72.953125-100.632813-229.804688 129.40625-56.667968zm0 0" fill="#85cdea"/><path d="m219.382812 268.816406-30.554687 13.378906 100.632813 229.804688 21.386718-34.550781zm0 0" fill="#78b7d2"/><path d="m0 455.335938 84.242188-16.289063 45.164062 72.953125 100.628906-229.804688-129.402344-56.667968zm0 0" fill="#85cdea"/><path d="m131.285156 238.953125-30.652344-13.425781-100.632812 229.808594 39.914062-7.71875zm0 0" fill="#78b7d2"/><path d="m385.519531 181.144531c0 100.042969-81.101562 181.144531-181.144531 181.144531s-181.144531-81.101562-181.144531-181.144531 81.101562-181.144531 181.144531-181.144531 181.144531 81.101562 181.144531 181.144531zm0 0" fill="#fadc60"/><path d="m59.765625 181.144531c0-93.878906 71.414063-171.074219 162.878906-180.230469-6.007812-.601562-12.101562-.914062-18.269531-.914062-100.042969 0-181.144531 81.101562-181.144531 181.144531s81.101562 181.144531 181.144531 181.144531c6.167969 0 12.261719-.3125 18.269531-.914062-91.464843-9.160156-162.878906-86.355469-162.878906-180.230469zm0 0" fill="#e6cb59"/><g fill="#464c51"><path d="m204.375 202.074219c-9.785156 0-17.71875-7.933594-17.71875-17.71875v-13.289063h35.4375v13.289063c0 9.785156-7.933594 17.71875-17.71875 17.71875zm0 0"/><path d="m269.988281 179.414062c-4.140625 0-7.5-3.359374-7.5-7.5v-11.699218c0-4.140625 3.359375-7.5 7.5-7.5s7.5 3.359375 7.5 7.5v11.699218c0 4.140626-3.359375 7.5-7.5 7.5zm0 0"/><path d="m138.765625 179.414062c-4.144531 0-7.5-3.359374-7.5-7.5v-11.699218c0-4.140625 3.355469-7.5 7.5-7.5 4.140625 0 7.5 3.359375 7.5 7.5v11.699218c0 4.140626-3.359375 7.5-7.5 7.5zm0 0"/></g><path d="m275.835938 201.527344h-11.695313c-4.144531 0-7.5-3.359375-7.5-7.5 0-4.144532 3.355469-7.5 7.5-7.5h11.695313c4.144531 0 7.5 3.355468 7.5 7.5 0 4.140625-3.355469 7.5-7.5 7.5zm0 0" fill="#fd6f71"/><path d="m144.613281 201.527344h-11.699219c-4.140624 0-7.5-3.359375-7.5-7.5 0-4.144532 3.359376-7.5 7.5-7.5h11.699219c4.140625 0 7.5 3.355468 7.5 7.5 0 4.140625-3.359375 7.5-7.5 7.5zm0 0" fill="#fd6f71"/><path d="m204.375 324.324219c-78.949219 0-143.179688-64.230469-143.179688-143.179688 0-32.820312 10.804688-63.695312 31.242188-89.285156 2.585938-3.238281 7.304688-3.765625 10.542969-1.179687 3.234375 2.582031 3.761719 7.300781 1.179687 10.539062-18.292968 22.90625-27.964844 50.542969-27.964844 79.925781 0 70.679688 57.5 128.179688 128.179688 128.179688s128.179688-57.5 128.179688-128.179688c0-70.679687-57.5-128.179687-128.179688-128.179687-29.21875 0-57.804688 10.089844-80.488281 28.414062-3.21875 2.605469-7.941407 2.101563-10.546875-1.121094-2.601563-3.222656-2.101563-7.945312 1.121094-10.546874 25.34375-20.472657 57.273437-31.746094 89.914062-31.746094 78.949219 0 143.179688 64.230468 143.179688 143.179687s-64.230469 143.179688-143.179688 143.179688zm0 0" fill="#d9bd4a"/></svg>