<?xml version="1.0" encoding="UTF-8" standalone="no"?>
<svg width="92px" height="92px" viewBox="0 0 92 92" version="1.1" xmlns="http://www.w3.org/2000/svg" xmlns:xlink="http://www.w3.org/1999/xlink">
    <!-- Generator: Sketch 50.2 (55047) - http://www.bohemiancoding.com/sketch -->
    <title>Group 3</title>
    <desc>Created with Sketch.</desc>
    <defs></defs>
    <g id="Page-1" stroke="none" stroke-width="1" fill="none" fill-rule="evenodd">
        <g id="iPhone-8-Copy-3" transform="translate(-142.000000, -407.000000)">
            <g id="Group-3" transform="translate(142.000000, 407.000000)">
                <g id="qrcode" fill="#000000" fill-rule="nonzero">
                    <path d="M21.9068105,48.1941345 L26.2918601,48.1941345 L26.2918601,52.5793306 L30.6738368,52.5793306 L30.6738368,56.9614537 L8.76702629,56.9614537 L8.76702629,52.5793306 L13.149003,52.5793306 L13.149003,43.8120115 L21.9160293,43.8120115 L21.9160293,48.1941345 L21.9068105,48.1941345 Z M78.8632887,87.62095 L83.2391195,87.62095 L83.2391195,83.2388269 L78.8632887,83.2388269 L78.8632887,87.62095 Z M26.2887872,48.1941345 L30.6707639,48.1941345 L30.6707639,43.8120115 L26.2887872,43.8120115 L26.2887872,48.1941345 Z M87.6149504,87.62095 L92,87.62095 L92,83.2388269 L87.6149504,83.2388269 L87.6149504,87.62095 Z M35.0558135,92 L43.813621,92 L43.813621,87.6178769 L35.0558135,87.6178769 L35.0558135,92 Z M74.4782391,92 L74.4782391,87.6178769 L70.0931895,87.6178769 L70.0931895,92 L74.4782391,92 Z M56.9564782,92 L61.3384549,92 L61.3384549,83.2357539 L56.9564782,83.2357539 L56.9564782,92 Z M21.9068105,35.0508384 L21.9068105,39.4329615 L35.0496677,39.4329615 L35.0496677,35.0508384 L21.9068105,35.0508384 Z M17.5309797,39.4298884 L17.5309797,35.0477654 L8.76395337,35.0477654 L8.76395337,43.8120115 L13.1459301,43.8120115 L13.1459301,39.4298884 L17.5309797,39.4298884 Z M30.6707639,30.6656423 L0.00614582985,30.6656423 L0.00614582985,0.00307301757 L30.6707639,0.00307301757 L30.6707639,30.6656423 Z M26.2887872,4.38519607 L4.38197669,4.38519607 L4.38197669,26.2865923 L26.2887872,26.2865923 L26.2887872,4.38519607 Z M8.76395337,83.2388269 L21.9037376,83.2388269 L21.9037376,70.0955308 L8.76395337,70.0955308 L8.76395337,83.2388269 Z M52.5714286,78.8536308 L52.5714286,83.2388269 L56.9595511,83.2388269 L56.9595511,78.8536308 L52.5714286,78.8536308 Z M21.9068105,8.76731913 L8.76702629,8.76731913 L8.76702629,21.9044692 L21.9068105,21.9044692 L21.9068105,8.76731913 Z M91.9969271,0.00307301757 L91.9969271,30.6687153 L61.332309,30.6687153 L61.332309,0.00307301757 L91.9969271,0.00307301757 Z M87.6149504,4.38519607 L65.7142857,4.38519607 L65.7142857,26.2865923 L87.6149504,26.2865923 L87.6149504,4.38519607 Z M0,61.3282116 L30.667691,61.3282116 L30.667691,91.993854 L0,91.993854 L0,61.3282116 Z M4.3850496,87.62095 L26.2918601,87.62095 L26.2918601,65.7134077 L4.3850496,65.7134077 L4.3850496,87.62095 Z M4.3850496,35.0508384 L0,35.0508384 L0,56.9583807 L4.3850496,56.9583807 L4.3850496,35.0508384 Z M61.332309,56.9522346 L61.332309,61.3282116 L65.7142857,61.3282116 L65.7142857,56.9522346 L61.332309,56.9522346 Z M48.1894519,74.4776538 L48.1894519,70.0955308 L43.8105481,70.0955308 L43.8105481,74.4807268 L35.0527406,74.4807268 L35.0527406,83.248046 L43.8105481,83.248046 L43.8105481,87.630169 L48.1894519,87.630169 L48.1894519,78.8628499 L52.5745015,78.8628499 L52.5745015,74.4807268 L48.1894519,74.4807268 L48.1894519,74.4776538 Z M35.0558135,17.5284922 L43.813621,17.5284922 L43.813621,13.1402231 L35.0558135,13.1402231 L35.0558135,17.5284922 Z M70.0962624,52.5762576 L78.8663616,52.5762576 L78.8663616,56.9583807 L83.2452654,56.9583807 L83.2452654,43.8181575 L78.8663616,43.8181575 L78.8663616,35.0508384 L74.4782391,35.0508384 L74.4782391,48.1941345 L61.3446007,48.1941345 L61.3446007,52.5793306 L65.7265774,52.5793306 L65.7265774,56.9614537 L70.1085541,56.9614537 L70.1085541,52.5793306 L70.0962624,52.5793306 L70.0962624,52.5762576 Z M74.4782391,65.7134077 L70.0931895,65.7134077 L70.0931895,61.3282116 L65.7112128,61.3282116 L65.7112128,70.0955308 L52.5714286,70.0955308 L52.5714286,74.4807268 L61.3415278,74.4807268 L61.3415278,83.248046 L65.7235045,83.248046 L65.7235045,87.630169 L70.1054811,87.630169 L70.1054811,78.8628499 L87.6241691,78.8628499 L87.6241691,74.4807268 L74.4843849,74.4807268 L74.4843849,65.7134077 L74.4782391,65.7134077 Z M74.4782391,65.7134077 L78.8663616,65.7134077 L78.8663616,56.9522346 L74.4782391,56.9522346 L74.4782391,65.7134077 Z M39.4316443,65.7134077 L39.4316443,61.3282116 L43.8074752,61.3282116 L43.8074752,56.9522346 L48.186379,56.9522346 L48.186379,52.5701116 L52.5714286,52.5701116 L52.5714286,43.8027924 L65.7112128,43.8027924 L65.7112128,35.0354733 L61.3292361,35.0354733 L61.3292361,39.4175964 L56.9472594,39.4175964 L56.9472594,21.8952502 L52.5652827,21.8952502 L52.5652827,13.1279311 L56.9472594,13.1279311 L56.9472594,0 L52.5652827,0 L52.5652827,8.76424611 L48.1833061,8.76424611 L48.1833061,0 L35.0435218,0 L35.0435218,8.76424611 L39.4254985,8.76424611 L39.4254985,4.38212305 L43.8013294,4.38212305 L43.8013294,13.1402231 L48.1833061,13.1402231 L48.1833061,26.2835193 L52.5652827,26.2835193 L52.5652827,30.6656423 L48.1833061,30.6656423 L48.1833061,39.4298884 L43.8013294,39.4298884 L43.8013294,30.6656423 L39.4254985,30.6656423 L39.4254985,26.2865923 L35.0435218,26.2865923 L35.0435218,35.0508384 L39.4254985,35.0508384 L39.4254985,39.4329615 L35.0435218,39.4329615 L35.0435218,52.5793306 L39.4254985,52.5793306 L39.4254985,43.8120115 L43.8013294,43.8120115 L43.8013294,52.5793306 L39.4254985,52.5793306 L39.4254985,56.9614537 L35.0435218,56.9614537 L35.0435218,70.0955308 L43.8013294,70.0955308 L43.8013294,65.7134077 L39.4316443,65.7134077 Z M87.6149504,70.0955308 L87.6149504,65.7134077 L78.8571429,65.7134077 L78.8571429,70.0955308 L87.6149504,70.0955308 Z M83.2329737,8.76731913 L70.0962624,8.76731913 L70.0962624,21.9044692 L83.2329737,21.9044692 L83.2329737,8.76731913 Z M48.1894519,65.7134077 L56.9595511,65.7134077 L56.9595511,61.3282116 L52.5714286,61.3282116 L52.5714286,56.9522346 L48.186379,56.9522346 L48.186379,65.7134077 L48.1894519,65.7134077 Z M56.9564782,56.9522346 L56.9564782,52.5701116 L52.5683557,52.5701116 L52.5683557,56.9522346 L56.9564782,56.9522346 Z M83.2329737,39.4298884 L92,39.4298884 L92,35.0477654 L83.2329737,35.0477654 L83.2329737,39.4298884 Z M87.6149504,74.4776538 L92,74.4776538 L92,70.0955308 L87.6149504,70.0955308 L87.6149504,74.4776538 Z M87.6149504,48.1941345 L92,48.1941345 L92,43.8120115 L87.6149504,43.8120115 L87.6149504,48.1941345 Z M48.1894519,26.2865923 L43.8105481,26.2865923 L43.8105481,30.6687153 L48.1894519,30.6687153 L48.1894519,26.2865923 Z" id="Shape"></path>
                </g>
                <g id="Group-2" transform="translate(23.000000, 24.000000)">
                    <circle id="Oval-2" stroke="#979797" fill="#FFFFFF" cx="22.5" cy="22.5" r="22.5"></circle>
                    <g id="error" fill="#F05228" fill-rule="nonzero">
                        <path d="M22.5,0 C10.0737579,0 0,10.0737579 0,22.5 C0,34.9262421 10.0737579,45 22.5,45 C34.9262421,45 45,34.9262421 45,22.5 C45,10.0737579 34.9263475,0 22.5,0 Z M34.9096835,29.1820886 L29.1825104,34.9096835 L22.5,28.2275949 L15.8174896,34.9101053 L10.0903165,29.1820886 L16.7724051,22.5 L10.0903165,15.8174896 L15.8174896,10.0903165 L22.5,16.7724051 L29.1825104,10.0903165 L34.9096835,15.8174896 L28.2275949,22.5 L34.9096835,29.1820886 Z" id="Shape"></path>
                    </g>
                </g>
            </g>
        </g>
    </g>
</svg>