<svg width="33" height="33" viewBox="0 0 33 33" fill="none" xmlns="http://www.w3.org/2000/svg">
<path fill-rule="evenodd" clip-rule="evenodd" d="M14.144 21.9982V23.5711H15.7113V25.143H12.57V20.4318H14.1418V18.86H15.7113V15.7152H14.1418V18.86H12.57V14.1444H7.85788V12.5726H12.57V9.42889H14.1418V10.9996H15.7113V14.1433H17.2831V11.0007H17.2853V10.9996H18.8549V9.42778H17.2831V4.71334H15.7158V6.28739H12.5744V4.71334H15.7113V1.57185H14.1418V3.1437H12.57V0H17.2831V3.1437H18.8549V0H20.4267V4.70893H18.8549V7.85373H20.4267V14.1389H21.9985V12.5671H23.5703V15.7119H18.8571V18.8567H20.43V20.4285H18.8571V21.9982H20.4311V23.5711H17.2853H17.2842V20.4285H18.856V18.8567H17.2842V20.4285H15.7136V21.9982H14.144ZM17.2853 10.9996V9.42889H15.7147V11.0007H17.2831V10.9996H17.2853ZM12.5722 12.5726V14.1444H14.1418V12.5726H12.5722ZM0.00220448 10.9996H11.0015V0.00110228H0.00220448V10.9996ZM6.28829 14.1433V12.5715H3.14359V15.7152H4.71539V14.1433H6.28829ZM9.42967 17.287H7.86118V15.7152H4.71649V18.86H3.14469V20.4318H11.0026V18.86H9.43078V17.287H11.0015V15.7152H9.42967V17.287ZM29.8575 31.4293H28.2879V29.8574H29.8575V31.4293ZM33 31.4293H31.4271V29.8574H33V31.4293ZM12.5744 33H15.7158V31.4326H17.2853V28.2878H18.8571V29.8574H20.43V33H22.0018V29.8563H20.4311V28.2845H18.8582V26.7159L22.0029 26.7159V29.8607H23.5747V31.4326H25.1421V33H26.715V31.4282H25.1465V28.2878H31.4304V26.7159H26.7172V23.5711H28.2857V25.143H31.4271L31.4271 26.7148H33V25.143H31.4271V23.5711H28.289L28.289 20.4307H29.8597V15.7174H28.289V12.5726H26.715V17.287H22.004V18.86H23.5758V20.4318H25.1476V18.86H25.1432V18.8589H28.289L28.289 20.4285H26.715V23.5711H25.1421V21.9982L23.5714 21.9982V20.4285H21.9996V21.9982L23.5703 21.9982V25.143H18.8571V26.7159L17.2853 26.7159V26.7148V25.143H15.7147V26.7159H12.5733V29.8607H15.7147V31.4282H12.5744V33ZM25.1465 31.4282H25.1421V31.4326H25.1465V31.4282ZM20.4311 29.8563V29.8574H20.43V29.8563H20.4311ZM18.8582 28.2845V28.2878H18.8571V28.2845H18.8582ZM15.7147 31.4282H15.7158V31.4326H15.7147V31.4282ZM9.42967 1.57295H1.5718V9.42889H9.42967V1.57295ZM7.85678 29.8574H3.14359V25.143H7.85678V29.8574ZM3.14469 3.1448H7.85788V7.85704H3.14469V3.1448ZM32.9989 0.00110228V11.0007H21.9996V0.00110228H32.9989ZM23.5714 1.57295H31.4271V9.42889H23.5714V1.57295ZM0 21.9982H11.0004V32.9978H0V21.9982ZM9.43078 31.4293H1.5729V23.5711H9.43078V31.4293ZM1.5729 12.5726H0V20.4307H1.5729V12.5726ZM25.1432 3.1448H29.8553V7.85704H25.1432V3.1448ZM29.8553 14.1433H33V12.5715H29.8553V14.1433ZM31.4271 17.287H33V15.7152H31.4271V17.287Z" fill="black"/>
</svg>
